<svg id="Layer_1" data-name="Layer 1" xmlns="http://www.w3.org/2000/svg" viewBox="0 0 1280 1280"><path d="M649.57,389.57c5,.64,10,1.15,14.93,1.94,67,10.71,114.67,47.38,142.14,109,17.53,39.33,18.51,80.38,6.78,121.82-10.18,36-26.27,69.33-44.78,101.55-32.49,56.53-71.47,108.45-114,157.78-10,11.63-19.77,11.65-29.76,0-48.16-56.13-92.12-115.24-126.6-180.92-15.77-30-29.63-61-35.87-94.58-12.26-66,6.46-122.38,54.94-168.53,28.63-27.24,63.38-42.14,102.51-47,3.37-.41,6.74-.74,10.12-1.11ZM639.18,662.18c49.32,1,90.75-39.72,91.7-90,.94-50.16-39.43-91.55-90.22-92.49-49.51-.91-90.86,39.47-91.94,89.79S588,661.2,639.18,662.18Z"/></svg>