<?xml version="1.0" encoding="utf-8"?>
<!-- Generator: Adobe Illustrator 25.4.1, SVG Export Plug-In . SVG Version: 6.00 Build 0)  -->
<svg version="1.1" id="Layer_1" xmlns="http://www.w3.org/2000/svg" xmlns:xlink="http://www.w3.org/1999/xlink" x="0px" y="0px"
	 viewBox="0 0 1280 1280" style="enable-background:new 0 0 1280 1280;" xml:space="preserve">
<g>
	<path d="M725.97,397.5c12.18,1.33,24.44,2.19,36.54,4.07c68.97,10.69,115.48,58.81,120.07,129.59
		c3.62,55.84,2.52,111.99,3.06,168.01c0.13,13-8.61,21.36-20.07,20.48c-12.51-0.97-18.22-8.61-18.25-20.72
		c-0.09-42.77,0.36-85.56-0.42-128.32c-0.32-17.6-1.89-35.43-5.3-52.68c-9.15-46.23-44.78-77.85-92.34-78.83
		c-72.06-1.49-144.21-1.5-216.27,0.04c-47.28,1-85.03,32.52-91.43,79.45c-11.06,81.05-11.01,162.89-0.1,243.95
		c6.5,48.31,44.95,79.55,93.74,80.4c70.59,1.23,141.24,1.34,211.83-0.07c38.71-0.77,68.82-18.82,86.73-54.49
		c6.47-12.9,17.19-17.35,27.48-12.33c10.6,5.18,13.55,16.07,6.98,29.19c-23.42,46.78-62.58,73.32-113.92,75.24
		c-74.95,2.8-150.14,2.54-225.12,0.22c-67.19-2.08-118.62-48.81-127.21-119.91c-9.84-81.49-10.75-164.11,1.06-245.58
		c10.02-69.11,63.06-111.78,133.64-115.02c6.79-0.31,13.52-1.76,20.28-2.68C613.28,397.5,669.62,397.5,725.97,397.5z"/>
	<path d="M577.1,723.52c-28.45-6.37-47.86-18.83-57.32-45.14c6.51-0.5,12.18-0.93,23.17-1.77c-29.03-14.5-45.7-33.62-46.78-64.16
		c7.61,1.74,14.09,3.23,24.34,5.58c-23.6-26.83-31.36-53.62-16.77-82.51c20.93,14.98,40.68,31.13,62.37,44.06
		c21.7,12.93,46.29,18.97,72.23,19.61c0.8-10.27,0.2-20.28,2.55-29.55c11.33-44.7,60.02-61.48,94.75-40.47
		c17.98,10.88,31.46,8.78,47.45,1c2.58-1.25,5.29-2.22,10.57-1.3c-6.29,9.23-12.58,18.46-20.77,30.46
		c9.96-2.63,17.92-4.74,25.88-6.84c0.81,0.56,1.63,1.11,2.44,1.67c-6.51,7.09-12.39,14.94-19.72,21.06
		c-7.89,6.58-10.73,13.83-11.17,24.06c-5.95,139.66-151.97,222.55-275.97,156.9c-2.43-1.28-4.64-2.98-10.45-6.76
		C519.18,750.32,548.77,744.56,577.1,723.52z"/>
</g>
</svg>
