<?xml version="1.0" encoding="utf-8"?>
<!-- Generator: Adobe Illustrator 25.0.1, SVG Export Plug-In . SVG Version: 6.00 Build 0)  -->
<svg version="1.1" id="Layer_1" xmlns="http://www.w3.org/2000/svg" xmlns:xlink="http://www.w3.org/1999/xlink" x="0px" y="0px"
	 viewBox="0 0 1280 1280" style="enable-background:new 0 0 1280 1280;" xml:space="preserve">
<style type="text/css">
	.st0{fill:#FFFFFF;}
</style>
<g>
	<path d="M-2014.04,647.52c15.78,0,29.54-0.24,43.29,0.06c16.03,0.35,23.48,8.76,22,24.43c-0.51,5.38-1.51,10.71-2.24,16.06
		c-1.65,12.12-8.67,18.33-20.89,18.47c-13.27,0.15-26.54,0.03-40.98,0.03c0,46.34,0,91.68,0,138.26c32.69,0,65.19,0.92,97.59-0.37
		c17.44-0.69,29.86-15.39,32.4-33.31c2.33-16.39,9.13-23.63,21.19-22.54c12.58,1.13,18.67,11.01,17.02,27.6
		c-3.55,35.62-35.36,66.67-71.47,66.86c-115.13,0.59-230.28,0.61-345.41,0c-38.56-0.2-71.66-33.93-71.81-72.48
		c-0.45-113.58-0.44-227.17-0.02-340.75c0.14-39.31,33.45-72.81,72.88-72.98c114.15-0.5,228.3-0.47,342.45-0.05
		c40.15,0.15,73.3,33.71,73.51,73.9c0.41,79.16,0.17,158.33,0.1,237.49c-0.01,14.46-7.39,23.09-19.05,23.06
		c-11.61-0.03-19.15-8.76-19.16-23.11c-0.1-76.21-0.01-152.43-0.06-228.64c-0.02-30.52-14.49-44.75-45.5-44.76
		c-107.23-0.04-214.46-0.04-321.69-0.01c-30.94,0.01-45.34,14.28-45.35,44.91c-0.03,107.19-0.04,214.38,0.01,321.57
		c0.01,29.57,14.72,43.99,44.76,44.02c58.27,0.06,116.53,0.02,175.79,0.02c0-46.4,0-91.8,0-138.68c-13.45,0-26.18,0.22-38.91-0.06
		c-15.04-0.33-21.5-6.77-22.11-21.53c-0.18-4.42-0.11-8.85-0.03-13.27c0.33-17.69,6.49-23.92,24-24.19
		c11.35-0.18,22.71-0.24,34.06-0.45c0.84-0.02,1.67-0.81,3.99-2.02c0-17.82-0.06-36.39,0.01-54.96
		c0.25-62.66,51.07-104.2,112.81-92.26c15.71,3.04,20.42,12.68,18.36,37.55c-1.13,13.72-9.13,21.22-22.42,19.98
		c-39.4-3.66-52.17,6.99-49.23,51.89C-2013.33,619.93-2014.04,632.71-2014.04,647.52z"/>
</g>
<g>
	<path d="M589.07,880.99c-40.77,0-81.59,1-122.3-0.2c-93.53-2.76-157.4-45.29-168.53-121c-12.05-81.93-13.12-165.03,1.57-246.98
		c11.89-66.35,76.7-111.2,158.61-112.82c85.69-1.69,171.51-1.92,257.19-0.12c92.2,1.93,158.48,51.75,165.76,126.94
		c5.54,57.19,3.49,114.89,4.27,172.36c0.16,12.01-8.34,19.31-23.46,19.76c-13.84,0.41-22.9-7.98-22.99-21.49
		c-0.28-42.76,0.35-85.53-0.58-128.29c-0.37-17.11-2.26-34.43-6.26-51.21c-11.11-46.63-53.67-78.47-111.31-79.53
		c-88.09-1.63-176.29-1.6-264.38,0.02c-56.59,1.04-102.36,32.57-110.14,78.49c-13.73,81.03-13.48,162.86-0.47,243.89
		c8.02,49.95,54.94,80.67,116.39,81.44c83.92,1.06,167.89,1.08,251.8,0.02c48.51-0.61,86.21-18.25,108.66-55.01
		c7.77-12.72,21.19-17.09,33.55-11.85c12.63,5.35,15.96,16.22,7.85,29.39c-29.04,47.2-77.25,71.99-140.39,75.27
		c-44.79,2.33-89.9,0.45-134.87,0.45C589.07,880.69,589.07,880.84,589.07,880.99z"/>
</g>
<g>
	<path d="M-754.56,880.99c-33.57,0-67.18,1-100.71-0.2c-77.02-2.76-129.6-45.29-138.77-121c-9.92-81.93-10.8-165.03,1.29-246.98
		c9.79-66.35,63.15-111.2,130.6-112.82c70.56-1.69,141.22-1.92,211.77-0.12c75.92,1.93,130.5,51.75,136.49,126.94
		c4.56,57.19,2.87,114.89,3.52,172.36c0.13,12.01-6.87,19.31-19.32,19.76c-11.4,0.41-18.85-7.98-18.93-21.49
		c-0.23-42.76,0.29-85.53-0.47-128.29c-0.3-17.11-1.86-34.43-5.15-51.21c-9.15-46.63-44.19-78.47-91.65-79.53
		c-72.53-1.63-145.16-1.6-217.69,0.02c-46.6,1.04-84.29,32.57-90.69,78.49c-11.3,81.03-11.1,162.86-0.38,243.89
		c6.61,49.95,45.24,80.67,95.83,81.44c69.1,1.06,138.24,1.08,207.34,0.02c39.95-0.61,70.98-18.25,89.47-55.01
		c6.4-12.72,17.45-17.09,27.63-11.85c10.4,5.35,13.14,16.22,6.47,29.39c-23.91,47.2-63.61,71.99-115.6,75.27
		c-36.88,2.33-74.03,0.45-111.05,0.45C-754.56,880.69-754.56,880.84-754.56,880.99z"/>
	<path d="M-874.89,639.42c0.28-65.46,54.35-118.74,120.15-118.37c65.57,0.37,119.45,54.72,118.84,119.88
		c-0.61,65.55-54.71,118.76-120.36,118.38C-821.97,758.93-875.17,705.16-874.89,639.42z M-836.39,639.54
		c-0.21,44.61,35.69,81.06,80.23,81.47c44.43,0.41,81.22-35.74,81.62-80.2c0.41-44.37-35.75-81.03-80.34-81.46
		C-799.28,558.93-836.17,595.22-836.39,639.54z"/>
	<path d="M-623.34,540.64c-15.56-0.45-29.16-15.01-28.27-30.25c0.87-14.92,14.83-27.84,29.62-27.41
		c15.54,0.45,29.21,15.05,28.3,30.23C-594.59,528.1-608.61,541.07-623.34,540.64z"/>
</g>
<g>
	<path d="M-2003.03,1732.5c12.18,1.33,24.44,2.19,36.54,4.07c68.97,10.69,115.47,58.81,120.07,129.59
		c3.62,55.84,2.52,111.99,3.06,168.01c0.13,13-8.61,21.36-20.07,20.48c-12.51-0.97-18.22-8.61-18.25-20.72
		c-0.09-42.77,0.36-85.56-0.42-128.32c-0.32-17.6-1.89-35.43-5.3-52.68c-9.15-46.23-44.78-77.85-92.34-78.83
		c-72.06-1.49-144.21-1.5-216.27,0.04c-47.28,1-85.03,32.52-91.43,79.45c-11.06,81.05-11.01,162.89-0.1,243.95
		c6.5,48.31,44.95,79.55,93.74,80.4c70.59,1.23,141.24,1.34,211.83-0.07c38.71-0.77,68.82-18.82,86.73-54.49
		c6.47-12.9,17.19-17.35,27.48-12.33c10.6,5.18,13.55,16.07,6.98,29.19c-23.42,46.78-62.58,73.32-113.92,75.24
		c-74.95,2.8-150.14,2.54-225.12,0.22c-67.19-2.08-118.62-48.81-127.21-119.91c-9.84-81.49-10.75-164.11,1.06-245.58
		c10.02-69.11,63.06-111.78,133.64-115.02c6.79-0.31,13.52-1.76,20.28-2.68C-2115.72,1732.5-2059.38,1732.5-2003.03,1732.5z"/>
	<path d="M-2151.9,2058.52c-28.45-6.37-47.86-18.83-57.32-45.14c6.51-0.5,12.18-0.93,23.17-1.77c-29.03-14.5-45.7-33.62-46.78-64.16
		c7.61,1.74,14.09,3.23,24.34,5.58c-23.6-26.83-31.36-53.62-16.77-82.51c20.93,14.98,40.68,31.13,62.37,44.06
		c21.7,12.93,46.29,18.97,72.23,19.61c0.8-10.27,0.2-20.28,2.55-29.55c11.33-44.7,60.02-61.48,94.75-40.47
		c17.98,10.88,31.46,8.78,47.45,1c2.58-1.25,5.29-2.22,10.57-1.3c-6.29,9.23-12.58,18.46-20.77,30.46
		c9.96-2.63,17.92-4.74,25.88-6.84c0.81,0.56,1.63,1.11,2.44,1.67c-6.51,7.09-12.39,14.94-19.72,21.06
		c-7.89,6.58-10.73,13.83-11.17,24.06c-5.95,139.66-151.97,222.55-275.97,156.9c-2.43-1.28-4.64-2.98-10.45-6.76
		C-2209.82,2085.32-2180.23,2079.56-2151.9,2058.52z"/>
</g>
<g>
	<path d="M-511.33,2053.19c-6.61,8.83-14.47,15.44-26.28,10.64c-10.88-4.42-12.23-13.93-12.2-24.47
		c0.21-74.7,0.14-149.41,0.1-224.11c-0.01-31.52-14.21-45.5-46.2-45.51c-106.69-0.03-213.37-0.03-320.06,0
		c-32.08,0.01-46.27,13.93-46.28,45.43c-0.03,106.65-0.03,213.3,0,319.94c0.01,30.78,14.31,45.1,45.11,45.11
		c107.67,0.04,215.35,0.05,323.02-0.01c27.92-0.01,39.54-10.88,44.93-38.35c1.27-6.47,7.39-14.22,13.36-17.07
		c10.61-5.06,18.46,2.43,24.49,10.99c0,7.87,0,15.74,0,23.61c-2.02,4.31-4,8.64-6.08,12.92c-13.87,28.54-36.28,45.65-68.5,45.79
		c-113.6,0.53-227.2,0.47-340.79,0.06c-40.16-0.15-73.57-33.64-73.7-73.66c-0.36-113.03-0.36-226.07,0-339.1
		c0.13-40.04,33.52-73.48,73.71-73.63c113.6-0.41,227.2-0.47,340.79,0.06c32.22,0.15,54.65,17.22,68.49,45.8
		c2.08,4.28,4.05,8.61,6.07,12.92C-511.33,1878.12-511.33,1965.66-511.33,2053.19z"/>
	<path d="M-736.34,1940.91c24.8-27.04,66.56-34.72,101.48-17.57c20.53,10.08,32.27,27.91,33.56,49.02
		c2.94,48,2.77,96.18,3.84,144.29c0.02,0.97-0.16,1.97-0.43,2.91c-3.77,13.15-17.88,17.38-46.85,14.09
		c-12.36-1.41-18.41-8.43-18.43-20.66c-0.05-27.04,0.11-54.09-0.11-81.13c-0.07-8.82-0.55-17.7-1.7-26.45
		c-2.8-21.31-12.05-31.26-29.58-32.71c-22.51-1.87-37.63,7.03-42.31,27.92c-3.07,13.7-2.98,28.21-3.29,42.39
		c-0.49,22.11,0.02,44.25-0.18,66.37c-0.16,17.49-6.7,23.91-24.1,24.39c-39.29,1.08-41.19-0.74-41.19-39.49
		c0-48.18-0.01-96.37,0-144.55c0-26.96,4.34-31.29,32.08-31.1c6.85,0.04,15.21-1.15,20.18,2.19
		C-746.42,1925.48-742.03,1933.86-736.34,1940.91z"/>
	<path d="M-914.71,2025.97c0-27.49-0.1-54.98,0.04-82.47c0.09-17.78,6.34-24.23,23.53-24.94c40.53-1.67,43.87,1.52,43.87,41.83
		c0,48.11,0.03,96.21-0.01,144.32c-0.02,23.99-5.2,29.01-29.76,29.07c-3.95,0.01-7.89,0.04-11.84-0.01
		c-19.85-0.26-25.72-5.92-25.8-25.33C-914.79,2080.95-914.71,2053.46-914.71,2025.97z"/>
	<path d="M-840.81,1850.05c0.22,21.31-17.96,39.57-39.38,39.56c-21.36-0.02-39.77-18.45-39.52-39.56
		c0.24-20.73,17.8-38.22,38.78-38.62C-859.34,1811-841.03,1828.62-840.81,1850.05z"/>
</g>
<g>
	<path class="st0" d="M517.61,636.41c0,31.17-0.09,62.33,0.04,93.5c0.07,16.44,14.11,24.39,28.09,15.86
		c50.2-30.6,100.35-61.29,150.45-92.05c13.62-8.36,13.59-23.17,0.06-31.82c-14.5-9.27-29.13-18.35-43.7-27.51
		c-35.2-22.13-70.41-44.27-105.62-66.39c-8.57-5.38-15.63-5.6-22.09-0.79c-5.66,4.22-7.27,10.12-7.25,16.86
		C517.64,574.86,517.6,605.63,517.61,636.41z"/>
	<path d="M517.61,636.41c0-30.78,0.04-61.56-0.03-92.34c-0.01-6.74,1.59-12.64,7.25-16.86c6.45-4.82,13.52-4.59,22.09,0.79
		c35.21,22.12,70.41,44.25,105.62,66.39c14.57,9.16,29.2,18.24,43.7,27.51c13.53,8.65,13.56,23.46-0.06,31.82
		c-50.1,30.76-100.25,61.46-150.45,92.05c-13.98,8.52-28.02,0.57-28.09-15.86C517.51,698.75,517.61,667.58,517.61,636.41z M553,573
		c0,43.2,0,85.01,0,127.53c34.42-21.08,68.14-41.74,102.74-62.93C621.09,615.81,587.35,594.6,553,573z"/>
</g>
</svg>
