<svg id="Layer_1" fill='#ce6e50' data-name="Layer 1" xmlns="http://www.w3.org/2000/svg" viewBox="0 0 1280 1280"><path d="M654.63,890.42H625.29a26.51,26.51,0,0,0-3.78-.8C586.4,887.24,553.13,878,522.37,861c-70.56-38.94-113.7-98.14-128.88-177.41-1.83-9.53-2.65-19.26-3.94-28.9V625.38a32.73,32.73,0,0,0,.82-4.22c2.45-34.94,11.48-68.17,28.61-98.65,46.11-82.06,116.5-126.57,210.49-132.46,40.52-2.53,79.78,5.08,116.17,23.18C834.9,457.61,883.41,530,890,629.49c3,45.5-7.23,88.92-29.37,128.84-39,70.31-98.27,113.26-177.47,128.21C673.71,888.31,664.13,889.15,654.63,890.42ZM419.53,625.11H507c3.25-30.9,6.47-61.45,9.68-91.85L460,511.81Q424,562.39,419.53,625.11Zm440.86,0Q856,562.22,819.93,511.82l-56.64,21.43c3.21,30.47,6.42,61,9.67,91.84ZM516.61,746.86c-3.22-30.63-6.42-61.16-9.64-91.78H419.5q4.59,63,40.48,113.17ZM773,655c-3.27,31-6.49,61.5-9.7,91.87L820,768.28c24-33.75,37.53-71.43,40.43-113.31ZM625,625.21V551.43l-78.86-9.91a525.8,525.8,0,0,0-8.52,83.69Zm29.74-.11h87.54a525.39,525.39,0,0,0-8.6-83.54l-78.94,9.87ZM536.43,655q4.47,43,8.71,83.76l79.9-10V655Zm198.35,83.74c2.84-27.42,5.74-55.35,8.67-83.6H655v73.58ZM625.06,418.48c-14.71,2.82-28.74,5.43-42.72,8.31-1.32.27-2.83,2.1-3.33,3.52-7.39,21-14.73,42-21.83,63.11-1.95,5.8-3.09,11.87-4.67,18.1a387.32,387.32,0,0,0,72.55,9.3Zm29.81,102.37a384.82,384.82,0,0,0,72.36-9.34,31.66,31.66,0,0,0-.73-3.75c-7.92-24.41-16-48.78-23.73-73.25-1.77-5.62-4.85-8.49-10.64-9.37-12.3-1.88-24.54-4.14-37.26-6.33ZM625,759.24c-24.68,1.06-48.69,3.72-72.52,9.47a587.72,587.72,0,0,0,24.57,76.89c2.13,5.41,4.87,8.48,10.68,9.36,12.3,1.87,24.54,4.14,37.27,6.33Zm102.8,9.43A388.59,388.59,0,0,0,655,759.29V861.6c14.63-2.81,28.66-5.4,42.63-8.33,1.42-.29,2.9-2.4,3.52-4,4.75-12.28,9.68-24.51,13.79-37C719.59,798.09,723.45,783.64,727.84,768.67Zm9.76-326.79,18.86,62.46,43.79-16.25A219.68,219.68,0,0,0,737.6,441.88ZM523.46,775.74,479.63,792c18.68,19.35,38.9,34.52,62.67,46.16C536,817.23,529.86,797,523.46,775.74Zm18.86-333.88a219.17,219.17,0,0,0-62.63,46.29l43.78,16.14ZM756.45,775.77,737.6,838.25A218.89,218.89,0,0,0,800.19,792Z"/></svg>